<svg width="24" height="18" viewBox="0 0 24 18" fill="none" xmlns="http://www.w3.org/2000/svg">
<path d="M19.029 10H22L21.734 11H18.742L19.029 10ZM19.892 7H22.704L23 6H20.179L19.892 7ZM19.316 9H23.703L24 8H19.604L19.316 9ZM7.5 15C6.672 15 6 15.672 6 16.5C6 17.329 6.672 18 7.5 18C8.328 18 9 17.329 9 16.5C9 15.672 8.328 15 7.5 15ZM14 16.5C14 17.329 13.328 18 12.5 18C11.672 18 11 17.329 11 16.5C11 15.672 11.672 15 12.5 15C13.328 15 14 15.672 14 16.5ZM22 0L21.257 2H19.328L15.854 14H4.615L0 3H14.812L12.271 12H14.373L17.805 0H22Z" fill="#CDD2DA"/>
</svg>
